<svg xmlns="http://www.w3.org/2000/svg" xmlns:svg="http://www.w3.org/2000/svg" id="svg8" width="400" height="400" version="1.1" viewBox="0 0 105.833 105.833"><metadata id="metadata5"/><g id="layer1" transform="translate(-5.0781207,-10.759731)"><rect style="fill:#000;fill-opacity:1;stroke-width:.92504507;stroke-miterlimit:4;stroke-dasharray:none;stroke-opacity:1" id="rect839" width="105.833" height="105.833" x="5.078" y="10.76"/><flowRoot id="flowRoot815" transform="scale(0.26458333)" xml:space="preserve" style="font-style:normal;font-weight:400;font-size:40px;line-height:1.25;font-family:sans-serif;letter-spacing:0;word-spacing:0;fill:#000;fill-opacity:1;stroke:none"><flowRegion id="flowRegion817"><rect id="rect819" width="414.286" height="348.571" x="180" y="111.091"/></flowRegion><flowPara id="flowPara821"/></flowRoot><g aria-label="____ ___ _____ / ___|_ _|_ _| | | _ | | | | | |_| || | | | \____|___| |_|" transform="matrix(0.22435816,0,0,0.22435816,146.08035,19.497565)" style="font-style:normal;font-variant:normal;font-weight:700;font-stretch:normal;font-size:40px;line-height:1.25;font-family:monospace;-inkscape-font-specification:'monospace Bold';letter-spacing:0;word-spacing:0;fill:#aaaaa0;fill-opacity:1;stroke:none" id="flowRoot823"><path id="path965" d="m -524.93555,97.917969 v 3.710941 h -24.08203 v -3.710941 z"/><path id="path967" d="m -500.87305,97.917969 v 3.710941 h -24.08203 v -3.710941 z"/><path id="path969" d="m -476.81055,97.917969 v 3.710941 h -24.08203 v -3.710941 z"/><path id="path971" d="m -452.74805,97.917969 v 3.710941 h -24.08203 v -3.710941 z"/><path id="path973" d="m -404.62305,97.917969 v 3.710941 h -24.08203 v -3.710941 z"/><path id="path975" d="m -380.56055,97.917969 v 3.710941 h -24.08203 v -3.710941 z"/><path id="path977" d="m -356.49805,97.917969 v 3.710941 h -24.08203 v -3.710941 z"/><path id="path979" d="m -308.37305,97.917969 v 3.710941 h -24.08203 v -3.710941 z"/><path id="path981" d="m -284.31055,97.917969 v 3.710941 h -24.08203 v -3.710941 z"/><path id="path983" d="m -260.24805,97.917969 v 3.710941 h -24.08203 v -3.710941 z"/><path id="path985" d="m -236.18555,97.917969 v 3.710941 h -24.08203 v -3.710941 z"/><path id="path987" d="m -212.12305,97.917969 v 3.710941 h -24.08203 v -3.710941 z"/><path id="path989" d="m -555.52148,113.03516 h 4.3164 l -15.35156,32.87109 h -4.31641 z"/><path id="path991" d="m -500.87305,147.91797 v 3.71094 h -24.08203 v -3.71094 z"/><path id="path993" d="m -476.81055,147.91797 v 3.71094 h -24.08203 v -3.71094 z"/><path id="path995" d="m -452.74805,147.91797 v 3.71094 h -24.08203 v -3.71094 z"/><path id="path997" d="m -438.5293,111.62891 v 40 h -4.43359 v -40 z"/><path id="path999" d="m -404.62305,147.91797 v 3.71094 h -24.08203 v -3.71094 z"/><path id="path1001" d="m -356.49805,147.91797 v 3.71094 h -24.08203 v -3.71094 z"/><path id="path1003" d="m -342.2793,111.62891 v 40 h -4.43359 v -40 z"/><path id="path1005" d="m -308.37305,147.91797 v 3.71094 h -24.08203 v -3.71094 z"/><path id="path1007" d="m -212.12305,147.91797 v 3.71094 h -24.08203 v -3.71094 z"/><path id="path1009" d="m -197.9043,111.62891 v 40 h -4.43359 v -40 z"/><path id="path1011" d="m -582.9043,161.62891 v 40 h -4.43359 v -40 z"/><path id="path1013" d="m -534.7793,161.62891 v 40 h -4.43359 v -40 z"/><path id="path1015" d="m -452.74805,197.91797 v 3.71094 h -24.08203 v -3.71094 z"/><path id="path1017" d="m -414.4668,161.62891 v 40 h -4.43359 v -40 z"/><path id="path1019" d="m -366.3418,161.62891 v 40 h -4.43359 v -40 z"/><path id="path1021" d="m -294.1543,161.62891 v 40 h -4.43359 v -40 z"/><path id="path1023" d="m -246.0293,161.62891 v 40 h -4.43359 v -40 z"/><path id="path1025" d="m -582.9043,211.62891 v 40 h -4.43359 v -40 z"/><path id="path1027" d="m -534.7793,211.62891 v 40 h -4.43359 v -40 z"/><path id="path1029" d="m -500.87305,247.91797 v 3.71094 h -24.08203 v -3.71094 z"/><path id="path1031" d="m -486.6543,211.62891 v 40 h -4.43359 v -40 z"/><path id="path1033" d="m -438.5293,211.62891 v 40 h -4.43359 v -40 z"/><path id="path1035" d="m -414.4668,211.62891 v 40 h -4.43359 v -40 z"/><path id="path1037" d="m -366.3418,211.62891 v 40 h -4.43359 v -40 z"/><path id="path1039" d="m -294.1543,211.62891 v 40 h -4.43359 v -40 z"/><path id="path1041" d="m -246.0293,211.62891 v 40 h -4.43359 v -40 z"/><path id="path1043" d="m -566.55664,263.03516 15.35156,32.87109 h -4.35547 l -15.35156,-32.87109 z"/><path id="path1045" d="m -524.93555,297.91797 v 3.71094 h -24.08203 v -3.71094 z"/><path id="path1047" d="m -500.87305,297.91797 v 3.71094 h -24.08203 v -3.71094 z"/><path id="path1049" d="m -476.81055,297.91797 v 3.71094 h -24.08203 v -3.71094 z"/><path id="path1051" d="m -452.74805,297.91797 v 3.71094 h -24.08203 v -3.71094 z"/><path id="path1053" d="m -438.5293,261.62891 v 40 h -4.43359 v -40 z"/><path id="path1055" d="m -404.62305,297.91797 v 3.71094 h -24.08203 v -3.71094 z"/><path id="path1057" d="m -380.56055,297.91797 v 3.71094 h -24.08203 v -3.71094 z"/><path id="path1059" d="m -356.49805,297.91797 v 3.71094 h -24.08203 v -3.71094 z"/><path id="path1061" d="m -342.2793,261.62891 v 40 h -4.43359 v -40 z"/><path id="path1063" d="m -294.1543,261.62891 v 40 h -4.43359 v -40 z"/><path id="path1065" d="m -260.24805,297.91797 v 3.71094 h -24.08203 v -3.71094 z"/><path id="path1067" d="m -246.0293,261.62891 v 40 h -4.43359 v -40 z"/></g></g></svg>